<svg xmlns="http://www.w3.org/2000/svg" viewBox="0 0 24 24" width="24" height="24"><path d="M12 2C6.48 2 2 5.67 2 10.2c0 4.05 3.59 7.44 8.44 8.09.33.07.77.22.89.5.1.26.07.66.03.92l-.14.87c-.04.27-.2 1.05.92.57s6.13-3.61 8.36-6.18C22.58 12.63 22 10.2 22 10.2 22 5.67 17.52 2 12 2zm-3.5 11h-2a.5.5 0 01-.5-.5v-4a.5.5 0 011 0V12h1.5a.5.5 0 010 1zm1.5-.5a.5.5 0 01-1 0v-4a.5.5 0 011 0v4zm4.5.5h-2a.5.5 0 01-.5-.5v-4a.5.5 0 011 0v3.2l1.87-2.93A.5.5 0 0115 9v3.5h1.5a.5.5 0 010 1h-2zm3.5 0a.5.5 0 01-.5-.5v-4a.5.5 0 011 0v4a.5.5 0 01-.5.5z" fill="#fff"/></svg>
